# Blender 4.0.2
# www.blender.org
mtllib Table.mtl
o Circle
v 0.400000 3.978107 2.497719
v 0.887281 3.978107 2.449725
v 1.355835 3.978107 2.307591
v 1.787658 3.978107 2.076777
v 2.166153 3.978107 1.766154
v 2.476777 3.978107 1.387658
v 2.707590 3.978107 0.955836
v 2.849725 3.978107 0.487281
v 2.897718 3.978107 0.000001
v 2.849725 3.978107 -0.487280
v 2.707590 3.978107 -0.955835
v 2.476777 3.978107 -1.387657
v 2.166153 3.978107 -1.766153
v 1.787658 3.978107 -2.076776
v 1.355835 3.978107 -2.307590
v 0.887281 3.978107 -2.449724
v 0.400000 3.978107 -2.497717
v -0.087281 3.978107 -2.449724
v -0.555835 3.978107 -2.307590
v -0.987658 3.978107 -2.076776
v -1.366153 3.978107 -1.766153
v -1.676777 3.978107 -1.387657
v -1.907591 3.978107 -0.955835
v -2.049725 3.978107 -0.487280
v -2.097718 3.978107 0.000001
v -2.049725 3.978107 0.487281
v -1.907591 3.978107 0.955836
v -1.676777 3.978107 1.387658
v -1.366153 3.978107 1.766154
v -0.987658 3.978107 2.076777
v -0.555835 3.978107 2.307591
v -0.087281 3.978107 2.449725
v 0.400000 3.848049 2.497719
v 0.887281 3.848049 2.449725
v 1.355835 3.848049 2.307591
v 1.787658 3.848049 2.076777
v 2.166153 3.848049 1.766154
v 2.476777 3.848049 1.387658
v 2.707590 3.848049 0.955836
v 2.849725 3.848049 0.487281
v 2.897718 3.848049 0.000001
v 2.849725 3.848049 -0.487280
v 2.707590 3.848049 -0.955835
v 2.476777 3.848049 -1.387657
v 2.166153 3.848049 -1.766153
v 1.787658 3.848049 -2.076776
v 1.355835 3.848049 -2.307590
v 0.887281 3.848049 -2.449724
v 0.400000 3.848049 -2.497717
v -0.087281 3.848049 -2.449724
v -0.555835 3.848049 -2.307590
v -0.987658 3.848049 -2.076776
v -1.366153 3.848049 -1.766153
v -1.676777 3.848049 -1.387657
v -1.907591 3.848049 -0.955835
v -2.049725 3.848049 -0.487280
v -2.097718 3.848049 0.000001
v -2.049725 3.848049 0.487281
v -1.907591 3.848049 0.955836
v -1.676777 3.848049 1.387658
v -1.366153 3.848049 1.766154
v -0.987658 3.848049 2.076777
v -0.555835 3.848049 2.307591
v -0.087281 3.848049 2.449725
v 0.617440 3.848048 0.185663
v 0.617440 -0.209403 0.185663
v 0.617440 3.848048 -0.184402
v 0.617440 -0.209403 -0.184402
v 0.218356 3.848048 0.185663
v 0.218356 -0.209403 0.185663
v 0.218356 3.848048 -0.184402
v 0.218356 -0.209403 -0.184402
vn 0.9569 -0.0000 0.2903
vn -0.7730 -0.0000 -0.6344
vn 0.9952 -0.0000 0.0980
vn -0.8819 -0.0000 -0.4714
vn 0.9952 -0.0000 -0.0980
vn -0.9569 -0.0000 -0.2903
vn 0.9569 -0.0000 -0.2903
vn -0.9952 -0.0000 -0.0980
vn 0.8819 -0.0000 -0.4714
vn -0.9952 -0.0000 0.0980
vn 0.7730 -0.0000 -0.6344
vn -0.9569 -0.0000 0.2903
vn 0.6344 -0.0000 -0.7730
vn -0.8819 -0.0000 0.4714
vn 0.4714 -0.0000 -0.8819
vn 0.0980 -0.0000 0.9952
vn -0.7730 -0.0000 0.6344
vn 0.2903 -0.0000 -0.9569
vn 0.2903 -0.0000 0.9569
vn -0.6344 -0.0000 0.7730
vn 0.0980 -0.0000 -0.9952
vn 0.4714 -0.0000 0.8819
vn -0.4714 -0.0000 0.8819
vn -0.0980 -0.0000 -0.9952
vn 0.6344 -0.0000 0.7730
vn -0.2903 -0.0000 0.9569
vn -0.2903 -0.0000 -0.9569
vn 0.7730 -0.0000 0.6344
vn -0.0980 -0.0000 0.9952
vn -0.4714 -0.0000 -0.8819
vn 0.8819 -0.0000 0.4714
vn -0.6344 -0.0000 -0.7730
vn -0.0000 1.0000 -0.0000
vn -0.0000 -1.0000 -0.0000
vn 1.0000 -0.0000 -0.0000
vn -0.0000 -0.0000 -1.0000
vn -1.0000 -0.0000 -0.0000
vn -0.0000 -0.0000 1.0000
vt 0.000000 0.000000
vt 0.375000 0.000000
vt 0.625000 0.000000
vt 0.625000 0.250000
vt 0.375000 0.250000
vt 0.625000 0.500000
vt 0.375000 0.500000
vt 0.625000 0.750000
vt 0.375000 0.750000
vt 0.625000 1.000000
vt 0.375000 1.000000
vt 0.125000 0.500000
vt 0.125000 0.750000
vt 0.875000 0.500000
vt 0.875000 0.750000
s 0
f 8/1/1 7/1/1 39/1/1 40/1/1
f 22/1/2 21/1/2 53/1/2 54/1/2
f 9/1/3 8/1/3 40/1/3 41/1/3
f 23/1/4 22/1/4 54/1/4 55/1/4
f 10/1/5 9/1/5 41/1/5 42/1/5
f 24/1/6 23/1/6 55/1/6 56/1/6
f 11/1/7 10/1/7 42/1/7 43/1/7
f 25/1/8 24/1/8 56/1/8 57/1/8
f 12/1/9 11/1/9 43/1/9 44/1/9
f 26/1/10 25/1/10 57/1/10 58/1/10
f 13/1/11 12/1/11 44/1/11 45/1/11
f 27/1/12 26/1/12 58/1/12 59/1/12
f 14/1/13 13/1/13 45/1/13 46/1/13
f 28/1/14 27/1/14 59/1/14 60/1/14
f 15/1/15 14/1/15 46/1/15 47/1/15
f 2/1/16 1/1/16 33/1/16 34/1/16
f 29/1/17 28/1/17 60/1/17 61/1/17
f 16/1/18 15/1/18 47/1/18 48/1/18
f 3/1/19 2/1/19 34/1/19 35/1/19
f 30/1/20 29/1/20 61/1/20 62/1/20
f 17/1/21 16/1/21 48/1/21 49/1/21
f 4/1/22 3/1/22 35/1/22 36/1/22
f 31/1/23 30/1/23 62/1/23 63/1/23
f 18/1/24 17/1/24 49/1/24 50/1/24
f 5/1/25 4/1/25 36/1/25 37/1/25
f 32/1/26 31/1/26 63/1/26 64/1/26
f 19/1/27 18/1/27 50/1/27 51/1/27
f 6/1/28 5/1/28 37/1/28 38/1/28
f 1/1/29 32/1/29 64/1/29 33/1/29
f 20/1/30 19/1/30 51/1/30 52/1/30
f 7/1/31 6/1/31 38/1/31 39/1/31
f 21/1/32 20/1/32 52/1/32 53/1/32
f 2/1/33 3/1/33 4/1/33 5/1/33 6/1/33 7/1/33 8/1/33 9/1/33 10/1/33 11/1/33 12/1/33 13/1/33 14/1/33 15/1/33 16/1/33 17/1/33 18/1/33 19/1/33 20/1/33 21/1/33 22/1/33 23/1/33 24/1/33 25/1/33 26/1/33 27/1/33 28/1/33 29/1/33 30/1/33 31/1/33 32/1/33 1/1/33
f 34/1/34 33/1/34 64/1/34 63/1/34 62/1/34 61/1/34 60/1/34 59/1/34 58/1/34 57/1/34 56/1/34 55/1/34 54/1/34 53/1/34 52/1/34 51/1/34 50/1/34 49/1/34 48/1/34 47/1/34 46/1/34 45/1/34 44/1/34 43/1/34 42/1/34 41/1/34 40/1/34 39/1/34 38/1/34 37/1/34 36/1/34 35/1/34
f 65/2/35 66/3/35 68/4/35 67/5/35
f 67/5/36 68/4/36 72/6/36 71/7/36
f 71/7/37 72/6/37 70/8/37 69/9/37
f 69/9/38 70/8/38 66/10/38 65/11/38
f 67/12/33 71/7/33 69/9/33 65/13/33
f 72/6/34 68/14/34 66/15/34 70/8/34
